# xmcd
# 
# Track frame offsets:
#     150
#     13787
#     28755
#     46827
#     62105
#     81677
#     102455
#     121465
#     149857
#     160105
#     174205
#     192447
# 
# Disc length: 2724
# 
# Revision: 0
# Processed by: cddbd v1.5.2PL0 Copyright (c) Steve Scherf et al.
# Submitted via: BonkEnc v1.0.5
# 
DISCID=ad0aa20c
DTITLE=Various Artist - American Folk Blues Festival '62
DYEAR=1990
DGENRE=Blues - Folk
TTITLE0=Memphis Slim - T-Bone,Walker - Willi Dixon - Jump Jackson - We're Gonna Rock
TTITLE1=T-Bone,Walker - Memphis Slim - Willi Dixon - Jump Jackson - I Wanna See My Baby
TTITLE2=T-Bone,Walker - Memphis Slim - Willi Dixon - Jump Jackson - I'm In Love
TTITLE3=Sonny Terry - Brownie McGhee - T-Bone,Walker - Willi Dixon - I'm Crazy 'Bout You Baby
TTITLE4=Memphis Slim - Willi Dixon - Jump Jackson - Stewball
TTITLE5=John Lee Hooker - T-Bone,Walker - Willi Dixon - Jump Jackson - Let's Make It Baby
TTITLE6=John Lee Hooker - T-Bone,Walker - Willi Dixon - Jump Jackson - Shake It Baby
TTITLE7=John Lee Hooker - T-Bone,Walker - Willi Dixon - Jump Jackson - The Right Time
TTITLE8=Shakey Jake - Memphis Slim - T-Bone,Walker - Willi Dixon - Jump Jackson - Hey Baby
TTITLE9=Shakey Jake - Memphis Slim - T-Bone,Walker - Willi Dixon - Jump Jackson - Love My Ba
TTITLE10=Browniw McGhee - Memphis Slim - Willi Dixon - Jump Jackson - Crying At The Station
TTITLE11=Memphis Slim - T-Bone,Walker - Willi Dixon - Jump Jackson - Bye Bye Baby
EXTD=
EXTT0=
EXTT1=
EXTT2=
EXTT3=
EXTT4=
EXTT5=
EXTT6=
EXTT7=
EXTT8=
EXTT9=
EXTT10=
EXTT11=
PLAYORDER=
